<svg xmlns="http://www.w3.org/2000/svg" xmlns:xlink="http://www.w3.org/1999/xlink" width="500" zoomAndPan="magnify" viewBox="0 0 375 374.999991" height="500" preserveAspectRatio="xMidYMid meet" version="1.0"><defs><g/><clipPath id="90608ac3b4"><path d="M 229 140 L 345.367188 140 L 345.367188 231.398438 L 229 231.398438 Z M 229 140 " clip-rule="nonzero"/></clipPath><clipPath id="483986305f"><path d="M 40.867188 59 L 221 59 L 221 231.398438 L 40.867188 231.398438 Z M 40.867188 59 " clip-rule="nonzero"/></clipPath></defs><path fill="#372a28" d="M 255.050781 83.324219 C 275.042969 83.324219 292.644531 93.539062 302.933594 109.027344 L 339.96875 109.027344 C 327.105469 74.628906 293.941406 50.136719 255.050781 50.136719 C 221.417969 50.136719 192.054688 68.464844 176.417969 95.675781 L 197.929688 134.664062 C 200.980469 105.808594 225.390625 83.324219 255.050781 83.324219 " fill-opacity="1" fill-rule="nonzero"/><g clip-path="url(#90608ac3b4)"><path fill="#372a28" d="M 250.34375 140.765625 L 250.34375 171.78125 L 303.410156 171.78125 C 293.195312 187.679688 275.355469 198.210938 255.050781 198.210938 C 245.980469 198.210938 237.398438 196.101562 229.769531 192.355469 L 251.265625 231.320312 C 252.523438 231.371094 253.785156 231.398438 255.050781 231.398438 C 305.105469 231.398438 345.683594 190.820312 345.683594 140.765625 L 250.34375 140.765625 " fill-opacity="1" fill-rule="nonzero"/></g><g clip-path="url(#483986305f)"><path fill="#372a28" d="M 40.847656 231.398438 L 151.875 231.398438 L 151.875 198.570312 L 96.359375 198.570312 L 124.117188 130.507812 L 179.710938 231.398438 L 220.957031 231.398438 L 123.390625 59.070312 L 40.847656 231.398438 " fill-opacity="1" fill-rule="nonzero"/></g><g fill="#372a28" fill-opacity="1"><g transform="translate(35.184399, 296.370991)"><g><path d="M 31.140625 -45.671875 L 31.140625 -14.796875 C 31.140625 -9.972656 29.738281 -6.210938 26.9375 -3.515625 C 24.132812 -0.828125 20.28125 0.515625 15.375 0.515625 C 9.164062 0.515625 3.929688 -1.914062 -0.328125 -6.78125 L 5.015625 -14.53125 C 8.273438 -11.144531 11.46875 -9.453125 14.59375 -9.453125 C 17.851562 -9.453125 19.484375 -11.316406 19.484375 -15.046875 L 19.484375 -36.296875 L 3.84375 -36.296875 L 3.84375 -45.671875 Z M 31.140625 -45.671875 "/></g></g></g><g fill="#372a28" fill-opacity="1"><g transform="translate(70.1019, 296.370991)"><g><path d="M 16.15625 0 L 4.5625 0 L 4.5625 -45.609375 L 16.15625 -45.609375 Z M 16.15625 0 "/></g></g></g><g fill="#372a28" fill-opacity="1"><g transform="translate(90.817879, 296.370991)"><g><path d="M 45.609375 -45.609375 L 45.609375 -19.15625 C 45.609375 -13.113281 43.738281 -8.320312 40 -4.78125 C 36.269531 -1.25 31.210938 0.515625 24.828125 0.515625 C 18.398438 0.515625 13.285156 -1.25 9.484375 -4.78125 C 5.679688 -8.320312 3.78125 -13.113281 3.78125 -19.15625 L 3.78125 -45.609375 L 15.375 -45.609375 L 15.375 -19.15625 C 15.375 -16.113281 16.253906 -13.691406 18.015625 -11.890625 C 19.773438 -10.085938 22.066406 -9.1875 24.890625 -9.1875 C 27.671875 -9.1875 29.894531 -10.078125 31.5625 -11.859375 C 33.238281 -13.640625 34.078125 -16.070312 34.078125 -19.15625 L 34.078125 -45.609375 Z M 45.609375 -45.609375 "/></g></g></g><g fill="#372a28" fill-opacity="1"><g transform="translate(140.197484, 296.370991)"><g><path d="M 20.78125 -16.421875 L 3.578125 -16.421875 L 3.578125 -23.515625 L 20.78125 -23.515625 Z M 20.78125 -16.421875 "/></g></g></g><g fill="#372a28" fill-opacity="1"><g transform="translate(164.561565, 296.370991)"><g><path d="M 31.140625 -45.671875 L 31.140625 -14.796875 C 31.140625 -9.972656 29.738281 -6.210938 26.9375 -3.515625 C 24.132812 -0.828125 20.28125 0.515625 15.375 0.515625 C 9.164062 0.515625 3.929688 -1.914062 -0.328125 -6.78125 L 5.015625 -14.53125 C 8.273438 -11.144531 11.46875 -9.453125 14.59375 -9.453125 C 17.851562 -9.453125 19.484375 -11.316406 19.484375 -15.046875 L 19.484375 -36.296875 L 3.84375 -36.296875 L 3.84375 -45.671875 Z M 31.140625 -45.671875 "/></g></g></g><g fill="#372a28" fill-opacity="1"><g transform="translate(199.479066, 296.370991)"><g><path d="M 16.15625 0 L 4.5625 0 L 4.5625 -45.609375 L 16.15625 -45.609375 Z M 16.15625 0 "/></g></g></g><g fill="#372a28" fill-opacity="1"><g transform="translate(220.195045, 296.370991)"><g><path d="M 39.421875 -36.296875 L 25.671875 -36.296875 L 25.671875 0 L 14.078125 0 L 14.078125 -36.296875 L 0.453125 -36.296875 L 0.453125 -45.671875 L 39.421875 -45.671875 Z M 39.421875 -36.296875 "/></g></g></g><g fill="#372a28" fill-opacity="1"><g transform="translate(259.998394, 296.370991)"><g><path d="M 22.09375 -46.125 C 28.90625 -46.125 34.898438 -44.429688 40.078125 -41.046875 L 35.703125 -31.984375 C 33.316406 -33.378906 30.753906 -34.519531 28.015625 -35.40625 C 25.273438 -36.300781 22.972656 -36.75 21.109375 -36.75 C 17.765625 -36.75 16.09375 -35.640625 16.09375 -33.421875 C 16.09375 -31.992188 16.914062 -30.84375 18.5625 -29.96875 C 20.21875 -29.101562 22.226562 -28.351562 24.59375 -27.71875 C 26.957031 -27.09375 29.320312 -26.332031 31.6875 -25.4375 C 34.0625 -24.550781 36.070312 -23.109375 37.71875 -21.109375 C 39.375 -19.109375 40.203125 -16.585938 40.203125 -13.546875 C 40.203125 -9.160156 38.484375 -5.738281 35.046875 -3.28125 C 31.617188 -0.832031 27.253906 0.390625 21.953125 0.390625 C 18.171875 0.390625 14.4375 -0.257812 10.75 -1.5625 C 7.0625 -2.863281 3.847656 -4.644531 1.109375 -6.90625 L 5.609375 -15.828125 C 7.910156 -13.828125 10.625 -12.1875 13.75 -10.90625 C 16.875 -9.625 19.65625 -8.984375 22.09375 -8.984375 C 23.957031 -8.984375 25.410156 -9.320312 26.453125 -10 C 27.492188 -10.675781 28.015625 -11.664062 28.015625 -12.96875 C 28.015625 -14.226562 27.414062 -15.28125 26.21875 -16.125 C 25.03125 -16.96875 23.546875 -17.597656 21.765625 -18.015625 C 19.984375 -18.429688 18.046875 -18.984375 15.953125 -19.671875 C 13.867188 -20.367188 11.9375 -21.128906 10.15625 -21.953125 C 8.382812 -22.785156 6.898438 -24.101562 5.703125 -25.90625 C 4.503906 -27.707031 3.90625 -29.863281 3.90625 -32.375 C 3.90625 -36.550781 5.566406 -39.882812 8.890625 -42.375 C 12.210938 -44.875 16.613281 -46.125 22.09375 -46.125 Z M 22.09375 -46.125 "/></g></g></g><g fill="#372a28" fill-opacity="1"><g transform="translate(301.951516, 296.370991)"><g><path d="M 45.609375 -45.609375 L 45.609375 -19.15625 C 45.609375 -13.113281 43.738281 -8.320312 40 -4.78125 C 36.269531 -1.25 31.210938 0.515625 24.828125 0.515625 C 18.398438 0.515625 13.285156 -1.25 9.484375 -4.78125 C 5.679688 -8.320312 3.78125 -13.113281 3.78125 -19.15625 L 3.78125 -45.609375 L 15.375 -45.609375 L 15.375 -19.15625 C 15.375 -16.113281 16.253906 -13.691406 18.015625 -11.890625 C 19.773438 -10.085938 22.066406 -9.1875 24.890625 -9.1875 C 27.671875 -9.1875 29.894531 -10.078125 31.5625 -11.859375 C 33.238281 -13.640625 34.078125 -16.070312 34.078125 -19.15625 L 34.078125 -45.609375 Z M 45.609375 -45.609375 "/></g></g></g></svg>